<svg xmlns="http://www.w3.org/2000/svg" height="1024" preserveAspectRatio="none" style="display: block;" version="1.1" viewBox="0 0 2048 2048" width="1024">
<path d="M 0 0 L 2048 0 L 2048 2048 L 0 2048 L 0 0 z" fill="rgb(254,252,252)" transform="translate(0,0)"></path>
<path d="M 1355.82 552.111 C 1380.89 556.788 1406.69 555.658 1431.26 548.809 C 1440 614.745 1426.2 678.773 1385.28 731.93 C 1350.1 777.132 1298.29 806.367 1241.42 813.108 C 1230.72 814.464 1219.91 814.806 1209.14 815.136 C 1157.76 816.706 1105.56 841.548 1071.04 879.69 C 1097.06 882.939 1124.64 882.897 1151.09 886.088 C 1274.72 901.003 1463.58 932.223 1521.06 1059.34 C 1555.92 1046.97 1592.12 1045.11 1628.35 1048.95 C 1728.59 1059.58 1798.26 1142.62 1783.39 1244.01 C 1774.38 1305.34 1738.29 1358.28 1689.73 1396.37 C 1627.45 1445.23 1544.53 1466.24 1466.29 1465.91 C 1438.57 1465.7 1414.41 1462.29 1386.92 1458.5 C 1364.85 1483.25 1337.35 1507.1 1311.19 1527.48 C 1300.01 1536.19 1287.65 1543.87 1276.2 1552.41 C 1288.7 1569.84 1297.53 1586.56 1301.57 1607.92 C 1307.19 1637.69 1300.58 1668.48 1283.22 1693.31 C 1191.28 1827.1 810.396 1822.44 683.436 1734.89 C 615.968 1688.37 602.227 1620.29 648.616 1552.76 C 614.613 1530.08 583.957 1507.16 555.072 1478.08 C 457.663 1380 397.289 1243.46 398.262 1104.41 C 398.556 1062.47 416.074 1028.43 445.692 999.39 C 556.97 890.301 824.538 875.446 974.081 877.218 L 975.865 876.367 C 1019.83 807.561 1093.92 754.455 1174.95 741.798 C 1196.3 738.464 1209.54 739.436 1229.72 737.691 C 1262.43 734.707 1292.9 719.758 1315.28 695.705 C 1356.39 652.056 1357.19 607.215 1355.82 552.111 z" fill="rgb(43,21,19)" transform="translate(0,0)"></path>
<path d="M 1014.6 968.886 C 1106.76 968.713 1331.01 991.496 1401.82 1055.99 C 1413.12 1066.28 1423.72 1080.37 1424.07 1096.25 C 1424.35 1109.11 1417.84 1120.63 1409.31 1129.81 C 1343.15 1200.92 1119.44 1221.95 1026.99 1224.77 C 977.61 1226.6 928.18 1226.38 878.822 1224.13 C 784.527 1219.43 590.345 1199.85 520.147 1132.91 C 510.107 1123.34 502.348 1111.01 502.345 1096.69 C 502.342 1083.08 509.755 1070.92 518.965 1061.44 C 592.448 985.842 832.801 969.937 934.757 968.389 C 926.438 996.997 911.923 1060.14 925.067 1089.02 C 933.081 1106.63 962.871 1112.73 977.733 1101.23 C 997.602 1088.72 994.44 1062.32 997.31 1042.02 C 1000.64 1018.49 1004.74 990.515 1014.6 968.886 z" fill="rgb(205,150,93)" transform="translate(0,0)"></path>
<path d="M 1355.82 552.111 C 1380.89 556.788 1406.69 555.658 1431.26 548.809 C 1440 614.745 1426.2 678.773 1385.28 731.93 C 1350.1 777.132 1298.29 806.367 1241.42 813.108 C 1230.72 814.464 1219.91 814.806 1209.14 815.136 C 1157.76 816.706 1105.56 841.548 1071.04 879.69 C 1049.41 896.377 1025.19 942.992 1014.6 968.886 C 1004.74 990.515 1000.64 1018.49 997.31 1042.02 C 994.44 1062.32 997.602 1088.72 977.733 1101.23 C 962.871 1112.73 933.081 1106.63 925.067 1089.02 C 911.923 1060.14 926.438 996.997 934.757 968.389 C 939.774 952.398 944.844 936.492 951.866 921.236 C 954.572 915.357 974.305 879.627 974.081 877.218 L 975.865 876.367 C 1019.83 807.561 1093.92 754.455 1174.95 741.798 C 1196.3 738.464 1209.54 739.436 1229.72 737.691 C 1262.43 734.707 1292.9 719.758 1315.28 695.705 C 1356.39 652.056 1357.19 607.215 1355.82 552.111 z" fill="rgb(86,167,178)" transform="translate(0,0)"></path>
<path d="M 1408.17 1241.8 C 1390.43 1298.44 1360.33 1345.49 1321.23 1389.55 C 1263.31 1458.53 1166.8 1513.91 1079.87 1536.3 C 956.477 1567.95 825.55 1548.88 716.313 1483.34 C 640.78 1438.71 574.464 1371.08 537.813 1291.19 C 531.699 1277.86 521.691 1256.93 518.103 1242.97 C 530.592 1246.78 552.423 1256.19 565.509 1261.03 C 592.141 1271.1 619.435 1279.32 647.197 1285.64 C 820.586 1325.73 1064.67 1329.63 1240.49 1293.74 C 1298.08 1282.47 1354.3 1265.06 1408.17 1241.8 z" fill="rgb(254,252,252)" transform="translate(0,0)"></path>
<path d="M 1581.89 1140.41 C 1601.62 1137.82 1632.58 1140.56 1649.94 1151.12 C 1728.22 1198.73 1679.63 1292.32 1618.89 1330.32 C 1594.44 1345.62 1580.28 1352.18 1552.23 1359.89 C 1518.09 1368.65 1486.05 1369.7 1451.18 1369.25 C 1458.09 1355.6 1466.67 1342.22 1473.7 1327.9 C 1501.97 1270.28 1517.41 1218.73 1523.21 1155.13 C 1542.58 1146.71 1561.02 1142.62 1581.89 1140.41 z" fill="rgb(254,252,252)" transform="translate(0,0)"></path>
<path d="M 1186.7 1599.91 C 1197.29 1601.75 1211.84 1627.08 1200.8 1640.08 C 1176.18 1669.07 1125.24 1683.91 1088.02 1690.29 C 993.847 1706.43 821.693 1710.13 741.423 1655.53 C 718.43 1638.35 712.837 1620.43 736.944 1600.68 C 748.669 1604.7 761.407 1610.55 773.35 1614.9 C 900.629 1661.25 1063.54 1656.66 1186.7 1599.91 z" fill="rgb(254,252,252)" transform="translate(0,0)"></path>
<path d="M 565.199 606.947 C 566.857 655.248 595.664 701.79 633.571 730.411 C 681.002 766.222 741.724 777.25 799.858 769.226 C 890.183 756.758 999.53 674.629 988.452 573.948 C 986.019 552.496 970.123 529.107 952.65 516.357 C 933.71 502.308 909.888 496.528 886.616 500.335 C 864.758 504.012 844.248 515.689 830.471 534.383 C 815.385 554.853 810.489 591.104 823.706 613.909 C 832.991 629.928 854.318 636.559 856.865 659.697 C 859.253 681.396 846.084 699.157 824.225 701.595 C 810.141 703.126 799.67 697.633 789.274 688.801 C 725.085 634.264 723.609 542.074 778.027 479.728 C 806.873 446.934 847.673 427.089 891.28 424.643 C 934.977 421.796 977.957 436.817 1010.37 466.264 C 1043.22 495.196 1063.19 536.023 1065.88 579.718 C 1075.85 763.473 831.314 895.046 670.795 834.323 C 563.338 793.673 496.918 722.47 490.934 605.432 C 515.257 611.538 540.647 612.056 565.199 606.947 z" fill="rgb(86,167,178)" transform="translate(0,0)"></path>
<path d="M 1355.82 552.111 C 1272.43 536.553 1213.98 460.923 1219.94 376.308 C 1225.91 291.692 1294.39 225.008 1379.13 221.299 C 1463.88 217.59 1537.93 278.036 1551.26 361.807 C 1564.59 445.578 1512.97 526.026 1431.26 548.809 C 1406.69 555.658 1380.89 556.788 1355.82 552.111 z" fill="rgb(43,21,19)" transform="translate(0,0)"></path>
<path d="M 1375.9 314.354 C 1416.8 308.301 1454.86 336.596 1460.84 377.514 C 1466.83 418.432 1438.47 456.439 1397.54 462.356 C 1356.71 468.258 1318.81 439.981 1312.84 399.159 C 1306.87 358.338 1335.08 320.392 1375.9 314.354 z" fill="rgb(254,252,252)" transform="translate(0,0)"></path>
<path d="M 490.934 605.432 C 409.007 584.862 355.581 506.062 366.798 422.34 C 378.016 338.619 450.301 276.662 534.754 278.385 C 619.206 280.108 688.905 344.961 696.698 429.07 C 704.492 513.179 647.897 589.735 565.199 606.947 C 540.647 612.056 515.257 611.538 490.934 605.432 z" fill="rgb(43,21,19)" transform="translate(0,0)"></path>
<path d="M 522.255 375.264 C 561.681 369.863 598.022 397.444 603.427 436.87 C 608.832 476.296 581.255 512.639 541.83 518.048 C 502.399 523.458 466.049 495.876 460.643 456.445 C 455.237 417.013 482.823 380.666 522.255 375.264 z" fill="rgb(254,252,252)" transform="translate(0,0)"></path>
<metadata><recraft-signature>{"signed_by": "recraft", "signature_b64": "KbjWXcCTGU9rTHmN5iUsHNf5x1GoGweXuszo6Dlcvo8vmPwHSssbdd8mCkABEUn3guxUEXINviRfs1D2uYuKBQ==", "signing_algo": "Ed25519", "generation_timestamp": 1779969100, "identifier": "f49bc30d-1b56-4c26-a24d-01344e97e483"}</recraft-signature></metadata></svg>